<svg xmlns="http://www.w3.org/2000/svg" width="600" height="600" viewBox="0 0 600 600">
  <rect width="600" height="600" rx="40" fill="#07111f"/>
  <rect x="40" y="40" width="520" height="520" rx="32" fill="#0f172a" stroke="#2563eb" stroke-opacity="0.35"/>
  <circle cx="300" cy="250" r="135" fill="#f2c79b"/>
  <path d="M185 495c30-130 90-190 115-190 25 0 85 60 115 190" fill="#1e293b"/>
  <path d="M222 205c14-72 36-105 78-105 46 0 74 39 83 105" fill="#0f172a"/>
  <circle cx="255" cy="248" r="8" fill="#111827"/>
  <circle cx="345" cy="248" r="8" fill="#111827"/>
  <path d="M265 308c18 18 52 18 70 0" stroke="#8b5e3c" stroke-width="8" stroke-linecap="round" fill="none"/>
  <path d="M215 210c21-54 51-80 85-80 34 0 64 26 86 80" stroke="#111827" stroke-width="16" stroke-linecap="round"/>
  <path d="M210 410c35-25 55-39 90-39s55 14 90 39" stroke="#2563eb" stroke-width="10" stroke-linecap="round"/>
  <circle cx="452" cy="184" r="54" fill="#2563eb" fill-opacity="0.18"/>
  <circle cx="144" cy="422" r="42" fill="#06b6d4" fill-opacity="0.16"/>
</svg>
